#!OML:ASF H:\GeneralSubjects\Female5\Project 1\Capture day 1\Session 1\Female5.ASF
:FULLY-SPECIFIED
:DEGREES
240
root -13.6417 17.9665 4.96348 30.6692 83.9364 12.998
lowerback 11.1909 -0.136381 2.38227
upperback -8.9713 0.441484 0.108165
thorax -16.4463 0.00380889 -1.34807
lowerneck -13.7374 -1.73848 1.90317
upperneck 44.2173 -0.591287 -0.892813
head 19.2856 0.722107 -0.637814
rclavicle 2.01269e-015 -6.36111e-015
rhumerus -55.8664 21.5121 -88.5531
rradius 43.4023
rwrist -2.43221
rhand -20.048 -14.8839
rfingers 7.12502
rthumb 6.29352 -44.7704
lclavicle 2.01269e-015 -6.36111e-015
lhumerus -34.5021 -18.5218 80.8225
lradius 50.4397
lwrist -10.33
lhand -36.9517 31.9513
lfingers 7.12502
lthumb -10.028 61.6924
rfemur -23.0369 25.2408 22.1009
rtibia -3.74621
rfoot -23.9102 -33.4555
rtoes 17.1768
lfemur -25.7199 -28.5976 -17.4531
ltibia -0.139954
lfoot -46.7713 -11.0954
ltoes -24.7629
241
root -13.2966 17.639 4.93425 34.0995 84.1829 15.371
lowerback 10.4161 -0.259325 2.9959
upperback -9.18767 0.369978 0.0276536
thorax -16.2163 -0.0970794 -1.76372
lowerneck -14.3942 -1.81141 1.75581
upperneck 44.1499 -0.707626 -0.946888
head 19.4288 0.6269 -0.668547
rclavicle 1.47349e-014 -2.74323e-014
rhumerus -59.454 20.0777 -88.9422
rradius 43.3587
rwrist -3.4186
rhand -20.8241 -14.8338
rfingers 7.12502
rthumb 5.54418 -44.7413
lclavicle 1.47349e-014 -2.74323e-014
lhumerus -37.3081 -16.9185 81.8222
lradius 49.5566
lwrist -10.6644
lhand -36.766 31.3765
lfingers 7.12502
lthumb -9.84892 61.1261
rfemur -26.0838 22.2868 21.7751
rtibia -3.84914
rfoot -19.1898 -33.3245
rtoes 16.3012
lfemur -29.9516 -26.4167 -16.2014
ltibia 0.809781
lfoot -44.947 -9.65439
ltoes -23.9858
242
root -12.9548 17.2476 4.90218 36.704 84.396 17.3307
lowerback 9.78991 -0.3668 3.62653
upperback -9.39224 0.318343 -0.0539874
thorax -16.0717 -0.192567 -2.19617
lowerneck -14.7561 -1.89258 1.64806
upperneck 44.0326 -0.817543 -1.03242
head 19.4531 0.540104 -0.718397
rclavicle 8.69683e-016 1.86858e-014
rhumerus -62.5413 18.8205 -89.1391
rradius 42.8211
rwrist -4.07013
rhand -21.5202 -14.7385
rfingers 7.12502
rthumb 4.87209 -44.6625
lclavicle 8.69683e-016 1.86858e-014
lhumerus -39.7529 -15.5099 82.466
lradius 48.5789
lwrist -11.2705
lhand -36.3336 30.8854
lfingers 7.12502
lthumb -9.43173 60.6544
rfemur -29.1319 19.3354 21.7504
rtibia -1.525
rfoot -12.8359 -32.3613
rtoes 11.5935
lfemur -33.3802 -19.3616 -18.5088
ltibia 4.47749
lfoot -37.4846 -6.37853
ltoes -24.2364
243
root -12.6181 16.7936 4.86544 38.147 84.5284 18.7936
lowerback 9.53903 -0.461823 4.24371
upperback -9.51403 0.281477 -0.150502
thorax -16.0716 -0.28652 -2.64333
lowerneck -14.7014 -1.98716 1.58683
upperneck 43.8834 -0.921318 -1.14856
head 19.3346 0.465332 -0.78544
rclavicle 4.34841e-015 2.5842e-014
rhumerus -64.9512 17.6753 -89.1258
rradius 41.6024
rwrist -4.24905
rhand -21.8575 -15.0183
rfingers 7.12502
rthumb 4.5464 -44.9495
lclavicle 4.34841e-015 2.5842e-014
lhumerus -41.7987 -14.2823 82.813
lradius 47.2008
lwrist -12.2598
lhand -35.7158 30.5907
lfingers 7.12502
lthumb -8.83558 60.3857
rfemur -31.9012 16.4856 22.1129
rtibia 3.2188
rfoot -8.45139 -29.3111
rtoes 6.1994
lfemur -36.617 -13.1396 -21.5108
ltibia 10.4389
lfoot -29.6562 -1.00933
ltoes -22.0788
244
root -12.2845 16.2895 4.82868 37.2999 84.497 18.9768
lowerback 9.97743 -0.529643 4.75917
upperback -9.38819 0.275999 -0.234745
thorax -16.2115 -0.362029 -3.02971
lowerneck -14.3585 -2.08961 1.53286
upperneck 43.7515 -1.0061 -1.28296
head 19.1459 0.402553 -0.854098
rclavicle 9.79014e-015 4.77083e-015
rhumerus -66.4462 16.579 -88.8054
rradius 39.6393
rwrist -4.00073
rhand -21.8339 -15.6893
rfingers 7.12502
rthumb 4.5692 -45.62
lclavicle 9.79014e-015 4.77083e-015
lhumerus -43.3048 -13.0833 82.8466
lradius 45.191
lwrist -13.5945
lhand -34.825 30.4633
lfingers 7.12502
lthumb -7.97584 60.2928
rfemur -33.8919 9.4181 26.013
rtibia 10.6881
rfoot -3.85727 -20.7879
rtoes -2.66242
lfemur -38.9118 -9.35726 -23.8197
ltibia 17.5976
lfoot -22.9188 -0.0940255
ltoes -20.0405
245
root -11.9594 15.7809 4.79315 34.5126 84.1641 17.9667
lowerback 10.9899 -0.540615 5.09363
upperback -9.02741 0.332118 -0.311118
thorax -16.4235 -0.393091 -3.32392
lowerneck -13.8952 -2.18178 1.45895
upperneck 43.632 -1.04581 -1.44164
head 18.9339 0.353031 -0.919344
rclavicle -1.10325e-014 -7.15625e-015
rhumerus -66.9092 15.4789 -88.0912
rradius 37.1339
rwrist -3.61711
rhand -21.358 -16.9651
rfingers 7.12502
rthumb 5.02871 -46.8855
lclavicle -1.10325e-014 -7.15625e-015
lhumerus -44.2268 -11.8266 82.5448
lradius 42.5549
lwrist -15.1648
lhand -33.7525 30.6201
lfingers 7.12502
lthumb -6.94063 60.4863
rfemur -35.661 6.12188 28.1351
rtibia 19.3391
rfoot -6.74761 -15.2913
rtoes -4.72954
lfemur -40.1491 -7.34945 -25.4152
ltibia 25.0723
lfoot -18.4271 -2.41127
ltoes -17.8051
246
root -11.6486 15.3133 4.76371 29.8108 83.5385 15.4371
lowerback 12.3533 -0.469954 5.27889
upperback -8.48495 0.493544 -0.327127
thorax -16.6205 -0.353809 -3.49705
lowerneck -13.4593 -2.25597 1.34257
upperneck 43.5692 -1.03067 -1.61268
head 18.7703 0.318842 -0.971766
rclavicle 1.29707e-014 1.07344e-014
rhumerus -66.4007 14.3436 -86.9956
rradius 34.4247
rwrist -3.45971
rhand -20.7564 -18.5083
rfingers 7.12502
rthumb 5.60957 -48.414
lclavicle 1.29707e-014 1.07344e-014
lhumerus -44.5689 -10.4755 81.9682
lradius 39.42
lwrist -16.8656
lhand -32.9568 30.5736
lfingers 7.12502
lthumb -6.17247 60.4636
rfemur -36.9936 4.90391 29.4157
rtibia 28.1381
rfoot -11.3921 -12.3082
rtoes -5.28606
lfemur -40.5777 -6.34724 -26.426
ltibia 32.3807
lfoot -16.6694 -6.22873
ltoes -15.9278
247
root -11.3569 14.93 4.74266 24.5034 82.6699 12.2727
lowerback 13.7653 -0.309846 5.34235
upperback -7.87884 0.770117 -0.267665
thorax -16.7511 -0.238394 -3.55214
lowerneck -13.1364 -2.3072 1.17585
upperneck 43.6141 -0.962027 -1.76461
head 18.7106 0.304362 -0.997026
rclavicle -1.14053e-014 -7.95139e-016
rhumerus -65.208 13.2344 -85.7497
rradius 31.9837
rwrist -3.78414
rhand -20.4023 -19.8121
rfingers 7.12502
rthumb 5.95144 -49.7085
lclavicle -1.14053e-014 -7.95139e-016
lhumerus -44.5171 -9.20925 81.3175
lradius 36.1562
lwrist -18.5928
lhand -31.9802 30.5021
lfingers 7.12502
lthumb -5.22966 60.4176
rfemur -37.8651 4.78028 30.329
rtibia 36.0534
rfoot -15.6557 -10.9292
rtoes -6.57625
lfemur -40.5043 -5.74001 -27.1129
ltibia 38.9461
lfoot -17.3211 -9.85526
ltoes -15.116
248
root -11.0874 14.6572 4.7313 20.0662 81.6623 9.55915
lowerback 14.8876 -0.065401 5.26279
upperback -7.3509 1.13365 -0.147573
thorax -16.7791 -0.0575231 -3.48487
lowerneck -12.889 -2.33582 1.03866
upperneck 43.7649 -0.83767 -1.9532
head 18.7409 0.317339 -1.03603
rclavicle -6.8208e-015 -7.55382e-015
rhumerus -63.7324 12.3202 -84.7258
rradius 30.2251
rwrist -4.59192
rhand -20.2294 -20.7298
rfingers 7.12502
rthumb 6.11839 -50.6215
lclavicle -6.8208e-015 -7.55382e-015
lhumerus -44.2924 -8.24391 80.8282
lradius 33.2041
lwrist -20.1548
lhand -30.9066 30.4522
lfingers 7.12502
lthumb -4.19298 60.3906
rfemur -38.2759 5.13201 31.0407
rtibia 42.1826
rfoot -18.4268 -10.8154
rtoes -9.57364
lfemur -40.2417 -5.21945 -27.6226
ltibia 44.2848
lfoot -19.7482 -11.9439
ltoes -16.411
249
root -10.8391 14.4971 4.72933 16.1434 80.7194 6.76709
lowerback 15.5305 0.21703 5.20518
upperback -6.99243 1.55023 0.0476403
thorax -16.7071 0.155343 -3.35708
lowerneck -12.6432 -2.3577 0.94489
upperneck 44.0166 -0.696492 -2.14406
head 18.837 0.350768 -1.08124
rclavicle 9.81499e-016 1.90833e-014
rhumerus -62.3583 11.8401 -84.3173
rradius 29.4042
rwrist -5.796
rhand -20.4021 -21.0653
rfingers 7.12502
rthumb 5.95164 -50.9617
lclavicle 9.81499e-016 1.90833e-014
lhumerus -44.139 -7.77482 80.6826
lradius 30.9779
lwrist -21.3792
lhand -29.7388 30.2555
lfingers 7.12502
lthumb -3.06526 60.2132
rfemur -38.0786 5.54482 31.7849
rtibia 46.0943
rfoot -20.1461 -11.0268
rtoes -12.1509
lfemur -39.9084 -4.63174 -27.8664
ltibia 48.1252
lfoot -22.5797 -12.3131
ltoes -19.0654
250
root -10.607 14.435 4.73455 13.3289 79.9591 4.5459
lowerback 15.6692 0.4889 5.13309
upperback -6.82869 1.93478 0.259267
thorax -16.5622 0.359825 -3.1856
lowerneck -12.3363 -2.38117 0.948046
upperneck 44.3372 -0.55938 -2.36028
head 18.9606 0.40216 -1.15674
rclavicle 1.30452e-015 -1.03368e-014
rhumerus -61.2963 11.9094 -84.6512
rradius 29.5371
rwrist -7.08713
rhand -20.8383 -20.8374
rfingers 7.12502
rthumb 5.53043 -50.7452
lclavicle 1.30452e-015 -1.03368e-014
lhumerus -44.2232 -7.80242 80.8833
lradius 29.7517
lwrist -22.0451
lhand -28.6282 29.9099
lfingers 7.12502
lthumb -1.99266 59.8804
rfemur -37.2242 5.72457 32.437
rtibia 47.7872
rfoot -21.0834 -11.3172
rtoes -13.9405
lfemur -39.3704 -3.92517 -28.0261
ltibia 50.425
lfoot -25.2031 -11.3202
ltoes -23.2258
251
root -10.3868 14.4505 4.74178 11.8341 79.4509 3.18598
lowerback 15.3272 0.703465 5.06011
upperback -6.87157 2.21806 0.419271
thorax -16.3779 0.516765 -3.03233
lowerneck -11.8845 -2.41919 1.01458
upperneck 44.6601 -0.459762 -2.56157
head 19.0447 0.456115 -1.24179
rclavicle -8.07563e-016 -1.43125e-014
rhumerus -60.5564 12.3714 -85.466
rradius 30.4238
rwrist -7.86368
rhand -21.2802 -20.5499
rfingers 7.12502
rthumb 5.10382 -50.4684
lclavicle -8.07563e-016 -1.43125e-014
lhumerus -44.6038 -8.07026 81.2066
lradius 29.5682
lwrist -22.0981
lhand -27.9152 29.611
lfingers 7.12502
lthumb -1.30399 59.5868
rfemur -35.9372 5.60088 32.8421
rtibia 47.6916
rfoot -21.3475 -11.5142
rtoes -14.9984
lfemur -38.5981 -3.33817 -28.2123
ltibia 51.2844
lfoot -27.309 -9.24269
ltoes -28.2424
